<?xml version="1.0" encoding="UTF-8" standalone="no"?>
<svg width="252px" height="19px" viewBox="0 0 252 19" version="1.1" xmlns="http://www.w3.org/2000/svg" xmlns:xlink="http://www.w3.org/1999/xlink">
    <!-- Generator: Sketch 3.7.2 (28276) - http://www.bohemiancoding.com/sketch -->
    <title>MHlogo</title>
    <desc>Created with Sketch.</desc>
    <defs></defs>
    <g id="Page-1" stroke="none" stroke-width="1" fill="none" fill-rule="evenodd">
        <g id="Home-page-Copy-4" transform="translate(-589.000000, -66.000000)" fill="#FFFFFF">
            <g id="Group">
                <g id="MHlogo" transform="translate(589.000000, 66.000000)">
                    <g id="Group-4">
                        <path d="M20.7039998,18.56 L18.6639998,18.56 L17.0319998,6.608 L11.1279998,18.56 L10.5039998,18.56 L4.52799981,6.512 L2.89599981,18.56 L0.903999809,18.56 L3.39999981,0.992 L3.90399981,0.992 L10.8159998,14.936 L17.6799998,0.992 L18.1839998,0.992 L20.7039998,18.56 Z M47.2559998,18.56 L45.0719998,18.56 L42.3599998,12.68 L35.1119998,12.68 L32.4239998,18.56 L30.1439998,18.56 L38.4479998,0.296 L39.0719998,0.296 L47.2559998,18.56 Z M41.4239998,10.592 L38.7599998,4.664 L36.0719998,10.592 L41.4239998,10.592 Z M69.1759998,18.56 L66.5839998,18.56 L60.3919998,10.544 L59.6719998,10.544 L59.6719998,18.56 L57.6079998,18.56 L57.6079998,0.992 L61.2079998,0.992 C63.1280094,0.992 64.4479962,1.07599916 65.1679998,1.244 C65.8880034,1.41200084 66.5119972,1.695998 67.0399998,2.096 C67.5680024,2.496002 67.9839983,3.01199684 68.2879998,3.644 C68.5920013,4.27600316 68.7439998,4.97599616 68.7439998,5.744 C68.7439998,7.20000728 68.2480048,8.36399564 67.2559998,9.236 C66.2639948,10.1080044 64.8320092,10.544 62.9599998,10.544 L69.1759998,18.56 Z M59.6719998,8.528 L62.4799998,8.528 C63.8880068,8.54400008 64.9279964,8.3320022 65.5999998,7.892 C66.2720032,7.4519978 66.6079998,6.74800484 66.6079998,5.78 C66.6079998,4.81199516 66.2800031,4.1080022 65.6239998,3.668 C64.9679965,3.2279978 63.9440068,3.008 62.5519998,3.008 L59.6719998,3.008 L59.6719998,8.528 Z M90.3279998,3.032 L82.1679998,3.032 L82.1679998,8.072 L90.2559998,8.072 L90.2559998,10.088 L82.1679998,10.088 L82.1679998,16.52 L90.2559998,16.52 L90.2559998,18.56 L80.1039998,18.56 L80.1039998,0.992 L90.3279998,0.992 L90.3279998,3.032 Z M111.192,3.032 L103.032,3.032 L103.032,8.072 L111.12,8.072 L111.12,10.088 L103.032,10.088 L103.032,16.52 L111.12,16.52 L111.12,18.56 L100.968,18.56 L100.968,0.992 L111.192,0.992 L111.192,3.032 Z M148.36,18.56 L146.296,18.56 L146.296,10.232 L137.872,10.232 L137.872,18.56 L135.784,18.56 L135.784,0.992 L137.872,0.992 L137.872,8.216 L146.296,8.216 L146.296,0.992 L148.36,0.992 L148.36,18.56 Z M168.6,0.56 C170.312008,0.56 171.887993,0.96399596 173.328,1.772 C174.768007,2.58000404 175.899996,3.69599288 176.724,5.12 C177.548004,6.54400712 177.96,8.09199164 177.96,9.764 C177.96,11.4360084 177.552004,12.9839929 176.736,14.408 C175.919996,15.8320071 174.800007,16.9519959 173.376,17.768 C171.951993,18.5840041 170.404008,18.992 168.732,18.992 C167.059991,18.992 165.504007,18.588004 164.064,17.78 C162.623993,16.971996 161.496004,15.8600071 160.68,14.444 C159.863996,13.0279929 159.456,11.4840084 159.456,9.812 C159.456,8.13999164 159.863996,6.58800716 160.68,5.156 C161.496004,3.72399284 162.611993,2.60000408 164.028,1.784 C165.444007,0.96799592 166.967992,0.56 168.6,0.56 L168.6,0.56 Z M168.672,16.976 C170.67201,16.976 172.363993,16.2960068 173.748,14.936 C175.132007,13.5759932 175.824,11.8720102 175.824,9.824 C175.824,7.77598976 175.124007,6.05600696 173.724,4.664 C172.323993,3.27199304 170.64001,2.576 168.672,2.576 C166.65599,2.576 164.972007,3.275993 163.62,4.676 C162.267993,6.076007 161.592,7.77998996 161.592,9.788 C161.592,11.79601 162.287993,13.495993 163.68,14.888 C165.072007,16.280007 166.73599,16.976 168.672,16.976 L168.672,16.976 Z M208.064,18.56 L206.024,18.56 L204.392,6.608 L198.488,18.56 L197.864,18.56 L191.888,6.512 L190.256,18.56 L188.264,18.56 L190.76,0.992 L191.264,0.992 L198.176,14.936 L205.04,0.992 L205.544,0.992 L208.064,18.56 Z M229.36,3.032 L221.2,3.032 L221.2,8.072 L229.288,8.072 L229.288,10.088 L221.2,10.088 L221.2,16.52 L229.288,16.52 L229.288,18.56 L219.136,18.56 L219.136,0.992 L229.36,0.992 L229.36,3.032 Z M251.64,18.56 L249.048,18.56 L242.856,10.544 L242.136,10.544 L242.136,18.56 L240.072,18.56 L240.072,0.992 L243.672,0.992 C245.592009,0.992 246.911996,1.07599916 247.632,1.244 C248.352003,1.41200084 248.975997,1.695998 249.504,2.096 C250.032002,2.496002 250.447998,3.01199684 250.752,3.644 C251.056001,4.27600316 251.208,4.97599616 251.208,5.744 C251.208,7.20000728 250.712005,8.36399564 249.72,9.236 C248.727995,10.1080044 247.296009,10.544 245.424,10.544 L251.64,18.56 Z M242.136,8.528 L244.944,8.528 C246.352007,8.54400008 247.391996,8.3320022 248.064,7.892 C248.736003,7.4519978 249.072,6.74800484 249.072,5.78 C249.072,4.81199516 248.744003,4.1080022 248.088,3.668 C247.431997,3.2279978 246.408007,3.008 245.016,3.008 L242.136,3.008 L242.136,8.528 Z" id="MAREE-HOMER-Copy"></path>
                    </g>
                </g>
            </g>
        </g>
    </g>
</svg>